<?xml version="1.0" encoding="UTF-8"?>
<svg id="Laag_1" data-name="Laag 1" xmlns="http://www.w3.org/2000/svg" version="1.1" viewBox="0 0 465 197.9">
  <defs>
    <style>
      .cls-1 {
        fill: #c3b064;
        stroke-width: 0px;
      }
    </style>
  </defs>
  <path class="cls-1" d="M462.3,9.8h-7.7c-1.4,0-2.6,1.1-2.6,2.5-3.4-.3-11.6-1.4-15.3-3.3-5.4-3-22.8-9-41.8-9H20.3c-4.5,0-8.2,4.5-8.2,8.2s0,5.6-5.1,5.6S0,16,0,19.8v145.4c0,3.8,2.5,6,7,6s5.1,5.6,5.1,5.6c0,3.7,3.6,8.2,8.2,8.2h144.5v-3H20.3c-2.7,0-5.2-2.9-5.2-5.2,0-3.5-2.2-8.6-8.1-8.6s-4-2-4-3V19.7c0-1,0-3,4-3,5.9,0,8.1-5.2,8.1-8.6s2.4-5.2,5.2-5.2h374.7c18.4,0,35.1,5.9,40.3,8.7,5.2,2.8,17.5,3.8,18,3.8s.8,0,1.1-.4.5-.6.5-1v-1.2h7v159.1h-6.9v-1.2c0-.4-.3-.8-.6-1-.3-.3-.7-.4-1.1-.4s-12.8,1-18,3.8-21.9,8.7-40.3,8.7h-98.2v3h98.2c19,0,36.3-6.1,41.8-9,3.6-2,11.9-3,15.3-3.3,0,1.4,1.2,2.5,2.6,2.5h7.7c1.4,0,2.6-1.2,2.6-2.6V12.4c0-1.4-1.2-2.6-2.6-2.6h-.1Z"/>
  <g>
    <path class="cls-1" d="M196.6,169c9.3,0,15.2,5.4,15.2,14.4s-5.9,14.4-15.2,14.4h-8.5v-28.9h8.5ZM195.1,175.1v16.7h1.4c4.7,0,7.9-2.8,7.9-8.3s-3.1-8.3-7.9-8.3h-1.4Z"/>
    <path class="cls-1" d="M239.2,185.5l6.6,12.4h-7.8l-5.2-10.7h-2.1v10.7h-7v-28.9h9.4c6.8,0,10.1,3.1,10.1,8.9s-1.4,6.2-4,7.6ZM230.7,175.1v6.2h2.1c1.9,0,3.1-1.2,3.1-3.2s-.9-3.1-3.5-3.1h-1.8,0Z"/>
    <path class="cls-1" d="M261,197.9v-13l-8.8-15.8h7.9l4.4,9.4,4.5-9.4h7.8l-8.8,15.8v13h-7Z"/>
  </g>
  <g>
    <path class="cls-1" d="M342.4,128c0,9-6.4,11.1-10.7,12.1h41.9c-4.2-1-10.7-3-10.7-12.1V56.7c0-9,6.4-11.1,10.7-12.1h-41.9c4.2,1,10.7,3,10.7,12.1v71.3Z"/>
    <path class="cls-1" d="M258.6,128c0,9-6.4,11.1-10.7,12.1h41.9c-4.2-1-10.7-3-10.7-12.1V56.7c0-9,6.4-11.1,10.7-12.1h-41.9c4.2,1,10.7,3,10.7,12.1v71.3h0Z"/>
    <path class="cls-1" d="M237.4,92.4c0,21.6-13.3,44.7-43,47.7,13.1-4,19.9-20.3,19.9-47.7s-6.8-43.7-19.9-47.7c29.7,3,43,26.1,43,47.7Z"/>
    <path class="cls-1" d="M140,92.4c0-21.6,13.3-44.7,43-47.7-13.1,4-19.9,20.3-19.9,47.7s6.8,43.7,19.9,47.7c-29.7-3-43-26.1-43-47.7Z"/>
    <path class="cls-1" d="M36.9,92.4c0-21.6,13.3-44.7,43-47.7-13.1,4-19.9,20.3-19.9,47.7s6.8,43.7,19.9,47.7c-29.7-3-43-26.1-43-47.7Z"/>
    <path class="cls-1" d="M428,92.4c0,21.6-13.3,44.7-43,47.7,13.1-4,19.9-20.3,19.9-47.7s-6.8-43.7-19.9-47.7c29.7,3,43,26.1,43,47.7Z"/>
    <path class="cls-1" d="M317.4,121.9c-3.4,9.4-8,15.8-16.1,18.2h16.1v-18.2Z"/>
    <path class="cls-1" d="M93.2,94.4c4.2,1,10.7,3,10.7,12.1v22.9s-3.8,7.8-12.4,10.7c1.1-.2,18-1.2,29.8-14.1v-25.4c0-4.6,3.3-5.7,5.5-6.2h-33.7.1Z"/>
    <path class="cls-1" d="M91.3,44.7c7.3,2.2,11,8.1,12.7,19.1.6,3.8,3.8,7.4,8.6,7.4s8.8-4,8.8-8.8c0-10.1-18.9-16.6-30.1-17.7Z"/>
  </g>
  <g>
    <path class="cls-1" d="M436.4,57.2c-6.9,0-12.6-5.6-12.6-12.6s5.6-12.6,12.6-12.6,12.6,5.6,12.6,12.6-5.6,12.6-12.6,12.6ZM436.4,34.6c-5.6,0-10.1,4.5-10.1,10.1s4.5,10.1,10.1,10.1,10.1-4.5,10.1-10.1-4.5-10.1-10.1-10.1Z"/>
    <path class="cls-1" d="M438.7,45.1l2.6,4.8h-3.1l-2.1-4.1h-.9v4.1h-2.8v-11.2h3.7c2.7,0,4,1.2,4,3.4s-.5,2.4-1.6,3h.2,0ZM435.4,41.1v2.4h.8c.8,0,1.2-.5,1.2-1.2s-.4-1.2-1.4-1.2h-.7.1Z"/>
  </g>
</svg>